<?xml version="1.0" encoding="utf-8"?>
<!-- Generator: Adobe Illustrator 17.1.0, SVG Export Plug-In . SVG Version: 6.00 Build 0)  -->
<!DOCTYPE svg PUBLIC "-//W3C//DTD SVG 1.1//EN" "http://www.w3.org/Graphics/SVG/1.1/DTD/svg11.dtd">
<svg version="1.1" xmlns="http://www.w3.org/2000/svg" xmlns:xlink="http://www.w3.org/1999/xlink" x="0px" y="0px"
	 viewBox="0 0 512 512" enable-background="new 0 0 512 512" xml:space="preserve">
<g id="Layer_1" display="none">
	<path class="socialPinterest" display="inline" d="M266.371,13.193c0,0,119.198,286.488,172.449,411.441c14.53,33.695,31.741,66.315,36.017,71.547
		c11.158,13.686,12.861,13.346,12.861,13.346s-41.65-1.262-62.575-1.262c-21.01,0-33.064,2.829-32.679,1.262
		c4.646-12.51,3.873-25.02-2.753-41.484c-1.325-3.34-10.51-25.803-14.646-36.336C338.756,344.786,258.05,150.204,258.05,150.204
		c-5.279-13.745-0.872-13.745-7.228,0c0,0-80.633,194.582-116.921,281.503c-4.202,10.532-13.403,32.995-14.687,36.336
		c-6.618,16.464-7.4,28.974-2.747,41.484c0.419,1.567-7.779-1.262-28.738-1.262c-21.034,0-62.584,1.262-62.584,1.262
		s1.66,0.34,12.836-13.346c4.235-5.232,21.445-37.852,35.942-71.547C127.199,299.681,246.407,13.193,246.407,13.193
		C252.5-1.592,259.217-2.631,266.371,13.193z"/>
</g>
<g  id="Insta" display="none">
	<g display="inline">
		<defs>
			<rect id="SVGID_1_" x="32.667" y="33.333" width="447.667" height="447.667"/>
		</defs>
		<clipPath id="SVGID_2_">
			<use xlink:href="#SVGID_1_"  overflow="visible"/>
		</clipPath>
		<path class="socialPinterest" clip-path="url(#SVGID_2_)" fill-rule="evenodd" clip-rule="evenodd" fill="#221F1F" d="M428.017,222.386h-38.905
			c2.835,11.004,4.509,22.501,4.509,34.389c0,75.955-61.56,137.511-137.503,137.511c-75.939,0-137.503-61.556-137.503-137.511
			c0-11.888,1.682-23.385,4.517-34.389H84.223v189.089c0,9.48,7.699,17.174,17.206,17.174h309.382
			c9.507,0,17.206-7.695,17.206-17.174V222.386z M428.017,102.074c0-9.487-7.699-17.186-17.206-17.186h-51.555
			c-9.495,0-17.186,7.699-17.186,17.186v51.575c0,9.487,7.691,17.186,17.186,17.186h51.555c9.507,0,17.206-7.699,17.206-17.186
			V102.074z M256.118,170.835c-47.469,0-85.944,38.471-85.944,85.94c0,47.461,38.475,85.952,85.944,85.952
			s85.952-38.491,85.952-85.952C342.07,209.306,303.587,170.835,256.118,170.835 M428.017,480.233H84.223
			c-28.47,0-51.555-23.093-51.555-51.583V84.887c0-28.474,23.085-51.555,51.555-51.555h343.794
			c28.474,0,51.555,23.081,51.555,51.555V428.65C479.573,457.14,456.492,480.233,428.017,480.233"/>
	</g>
</g>
<g id="Twitter" display="none">
	<path class="socialPinterest" display="inline" d="M505,97.506c-18.405,8.163-38.184,13.681-58.947,16.161c21.191-12.701,37.464-32.815,45.127-56.781
		c-19.829,11.761-41.794,20.303-65.172,24.906c-18.721-19.947-45.395-32.411-74.913-32.411c-56.683,0-102.635,45.952-102.635,102.63
		c0,8.045,0.908,15.877,2.657,23.389c-85.297-4.28-160.921-45.139-211.54-107.233c-8.834,15.158-13.895,32.788-13.895,51.597
		c0,35.606,18.119,67.02,45.657,85.425c-16.824-0.532-32.649-5.15-46.487-12.837c-0.007,0.429-0.009,0.858-0.009,1.29
		c0,49.727,35.377,91.209,82.329,100.636c-8.613,2.345-17.68,3.599-27.04,3.599c-6.613,0-13.043-0.643-19.31-1.841
		c13.061,40.774,50.963,70.447,95.873,71.277c-35.125,27.526-79.378,43.933-127.462,43.933c-8.284,0-16.454-0.486-24.483-1.433
		c45.42,29.12,99.367,46.109,157.325,46.109c188.779,0,292.009-156.387,292.009-292.011c0-4.449-0.1-8.876-0.297-13.277
		C473.84,136.164,491.241,118.087,505,97.506z"/>
</g>
<g id="Layer_4">
	<g>
		<path class="socialPinterest" d="M256.928,32.629c-123.949,0-224.442,100.485-224.442,224.439c0,91.902,55.263,170.853,134.344,205.566
			c-0.632-15.672-0.114-34.486,3.906-51.537c4.315-18.221,28.879-122.296,28.879-122.296s-7.171-14.331-7.171-35.512
			c0-33.259,19.278-58.1,43.285-58.1c20.414,0,30.277,15.334,30.277,33.695c0,20.523-13.088,51.219-19.821,79.65
			c-5.623,23.807,11.937,43.226,35.425,43.226c42.523,0,71.163-54.616,71.163-119.326c0-49.19-33.131-86.008-93.39-86.008
			c-68.081,0-110.495,50.772-110.495,107.483c0,19.553,5.766,33.344,14.796,44.02c4.152,4.905,4.729,6.878,3.226,12.509
			c-1.076,4.13-3.549,14.072-4.572,18.011c-1.495,5.684-6.1,7.716-11.238,5.617c-31.358-12.802-45.963-47.142-45.963-85.745
			c0-63.755,53.77-140.204,160.406-140.204c85.689,0,142.085,62.008,142.085,128.568c0,88.043-48.947,153.82-121.099,153.82
			c-24.231,0-47.024-13.099-54.831-27.976c0,0-13.03,51.711-15.79,61.696c-4.758,17.305-14.073,34.599-22.589,48.08
			c20.186,5.959,41.509,9.204,63.608,9.204c123.938,0,224.428-100.486,224.428-224.443
			C481.356,133.114,380.866,32.629,256.928,32.629z"/>
	</g>
</g>
</svg>
