<?xml version="1.0" encoding="utf-8"?>
<!-- Generator: Adobe Illustrator 17.1.0, SVG Export Plug-In . SVG Version: 6.00 Build 0)  -->
<!DOCTYPE svg PUBLIC "-//W3C//DTD SVG 1.1//EN" "http://www.w3.org/Graphics/SVG/1.1/DTD/svg11.dtd">
<svg version="1.1" xmlns="http://www.w3.org/2000/svg" xmlns:xlink="http://www.w3.org/1999/xlink" x="0px" y="0px"
	 viewBox="0 0 512 512" enable-background="new 0 0 512 512" xml:space="preserve">
<g id="Layer_1" display="none">
	<path display="inline" d="M266.371,13.193c0,0,119.198,286.488,172.449,411.441c14.53,33.695,31.741,66.315,36.017,71.547
		c11.158,13.686,12.861,13.346,12.861,13.346s-41.65-1.262-62.575-1.262c-21.01,0-33.064,2.829-32.679,1.262
		c4.646-12.51,3.873-25.02-2.753-41.484c-1.325-3.34-10.51-25.803-14.646-36.336C338.756,344.786,258.05,150.204,258.05,150.204
		c-5.279-13.745-0.872-13.745-7.228,0c0,0-80.633,194.582-116.921,281.503c-4.202,10.532-13.403,32.995-14.687,36.336
		c-6.618,16.464-7.4,28.974-2.747,41.484c0.419,1.567-7.779-1.262-28.738-1.262c-21.034,0-62.584,1.262-62.584,1.262
		s1.66,0.34,12.836-13.346c4.235-5.232,21.445-37.852,35.942-71.547C127.199,299.681,246.407,13.193,246.407,13.193
		C252.5-1.592,259.217-2.631,266.371,13.193z"/>
</g>
<g id="Layer_2">
	<g>
		<defs>
			<rect id="SVGID_1_" x="32.667" y="33.333" width="447.667" height="447.667"/>
		</defs>
		<clipPath id="SVGID_2_">
			<use xlink:href="#SVGID_1_"  overflow="visible"/>
		</clipPath>
		<path clip-path="url(#SVGID_2_)" fill-rule="evenodd" clip-rule="evenodd" fill="#221F1F" d="M428.017,222.386h-38.905
			c2.835,11.004,4.509,22.501,4.509,34.389c0,75.955-61.56,137.511-137.503,137.511c-75.939,0-137.503-61.556-137.503-137.511
			c0-11.888,1.682-23.385,4.517-34.389H84.223v189.089c0,9.48,7.699,17.174,17.206,17.174h309.382
			c9.507,0,17.206-7.695,17.206-17.174V222.386z M428.017,102.074c0-9.487-7.699-17.186-17.206-17.186h-51.555
			c-9.495,0-17.186,7.699-17.186,17.186v51.575c0,9.487,7.691,17.186,17.186,17.186h51.555c9.507,0,17.206-7.699,17.206-17.186
			V102.074z M256.118,170.835c-47.469,0-85.944,38.471-85.944,85.94c0,47.461,38.475,85.952,85.944,85.952
			s85.952-38.491,85.952-85.952C342.07,209.306,303.587,170.835,256.118,170.835 M428.017,480.233H84.223
			c-28.47,0-51.555-23.093-51.555-51.583V84.887c0-28.474,23.085-51.555,51.555-51.555h343.794
			c28.474,0,51.555,23.081,51.555,51.555V428.65C479.573,457.14,456.492,480.233,428.017,480.233"/>
	</g>
</g>
</svg>
