# Blender v2.78 (sub 5) OBJ File: 'studioOBJScene.blend'
# www.blender.org
mtllib studioGlassDarkOBJ.mtl
o studio_studio_Glass_-_Heavy_Color_(Blue)
v -2.098919 0.000003 -13.424526
v -2.098919 0.914403 -13.424526
v -3.225723 0.457203 -12.973804
v -4.352528 0.914403 -12.523083
v -4.352528 0.000003 -12.523083
v -4.759677 0.000003 -11.921707
v -4.759677 0.914403 -11.921707
v -4.759677 0.457201 -9.009992
v -4.759677 0.914401 -6.098275
v -4.759677 0.000001 -6.098275
v -4.352528 -0.000005 12.518531
v -4.352528 0.914395 12.518531
v -3.225723 0.457195 12.969253
v -2.098919 0.914395 13.419974
v -2.098919 -0.000005 13.419974
v -4.759677 -0.000003 6.093724
v -4.759677 0.914397 6.093724
v -4.759677 0.457197 9.005441
v -4.759677 0.914395 11.917157
v -4.759677 -0.000005 11.917157
v 3.771662 0.304801 -6.072875
v 0.282222 0.304801 -6.072875
v 2.026941 1.371601 -6.072875
v 0.282222 2.438401 -6.072875
v 1.993661 2.438401 -6.072875
v 1.993661 2.438401 -6.060174
v 0.282222 2.438401 -6.060174
v 2.026941 1.371601 -6.060175
v 0.282222 0.304801 -6.060175
v 3.771662 0.304801 -6.060175
v -4.412112 5.645255 -6.072873
v -4.129377 6.004601 -6.072873
v -4.416778 5.580102 -6.072873
v -1.338558 4.846582 -6.072874
v -4.416778 2.743201 -6.072875
v 1.739661 2.743201 -6.072875
v -1.553336 6.694798 -6.072873
v -2.074367 6.826605 -6.072873
v -1.601105 6.744074 -6.072873
v -1.657901 6.787057 -6.072873
v -1.722378 6.821437 -6.072873
v -2.008913 6.847240 -6.072873
v -1.938510 6.858044 -6.072873
v -4.397577 5.711206 -6.072873
v -4.372819 5.775711 -6.072873
v -4.338170 5.836421 -6.072873
v -4.294671 5.891139 -6.072873
v -4.243974 5.938083 -6.072873
v -4.188138 5.976071 -6.072873
v -1.865441 6.857628 -6.072873
v -1.792439 6.845343 -6.072873
v -4.188138 5.976071 -6.060173
v -4.243974 5.938083 -6.060173
v -4.129377 6.004601 -6.060173
v -4.294671 5.891139 -6.060173
v -4.338170 5.836421 -6.060173
v -4.372819 5.775711 -6.060173
v -4.397577 5.711206 -6.060173
v -4.412112 5.645255 -6.060173
v -4.416778 5.580102 -6.060173
v -1.338558 4.846582 -6.060173
v -2.074367 6.826605 -6.060173
v -1.553336 6.694798 -6.060173
v -1.601105 6.744074 -6.060173
v -4.416778 2.743201 -6.060174
v 1.739661 2.743201 -6.060174
v -1.657901 6.787057 -6.060173
v -1.722378 6.821437 -6.060173
v -2.008913 6.847240 -6.060173
v -1.938510 6.858044 -6.060173
v -1.792439 6.845343 -6.060173
v -1.865441 6.857628 -6.060173
v 1.993661 2.438397 6.068326
v 0.282222 2.438397 6.068326
v 2.026941 1.371597 6.068325
v 0.282222 0.304797 6.068325
v 3.771662 0.304797 6.068325
v 3.771662 0.304797 6.055625
v 0.282222 0.304797 6.055625
v 2.026941 1.371597 6.055625
v 0.282222 2.438397 6.055625
v 1.993661 2.438397 6.055625
v -4.188138 5.976067 6.068327
v -4.243974 5.938079 6.068327
v -4.129377 6.004597 6.068327
v -4.294671 5.891135 6.068327
v -4.338170 5.836417 6.068327
v -4.372819 5.775707 6.068327
v -4.397577 5.711202 6.068327
v -4.412112 5.645251 6.068327
v -4.416778 5.580098 6.068327
v -1.338558 4.846578 6.068327
v -2.074367 6.826601 6.068327
v -1.553336 6.694794 6.068327
v -1.601105 6.744070 6.068327
v -4.416778 2.743197 6.068326
v 1.739661 2.743197 6.068326
v -1.657901 6.787053 6.068327
v -1.722378 6.821433 6.068327
v -2.008913 6.847236 6.068327
v -1.938510 6.858040 6.068327
v -1.792439 6.845339 6.068327
v -1.865441 6.857624 6.068327
v -4.412112 5.645251 6.055627
v -4.129377 6.004597 6.055627
v -4.416778 5.580098 6.055627
v -1.338558 4.846578 6.055627
v -4.416778 2.743197 6.055625
v 1.739661 2.743197 6.055625
v -1.553336 6.694794 6.055627
v -2.074367 6.826601 6.055627
v -1.601105 6.744070 6.055627
v -1.657901 6.787053 6.055627
v -1.722378 6.821433 6.055627
v -2.008913 6.847236 6.055627
v -1.938510 6.858040 6.055627
v -4.397577 5.711202 6.055627
v -4.372819 5.775707 6.055627
v -4.338170 5.836417 6.055627
v -4.294671 5.891135 6.055627
v -4.243974 5.938079 6.055627
v -4.188138 5.976067 6.055627
v -1.865441 6.857624 6.055627
v -1.792439 6.845339 6.055627
vt 0.645528 0.786158
vt 0.645528 0.850675
vt 0.559901 0.818416
vt 0.474274 0.850675
vt 0.474274 0.786158
vt 0.935206 0.344183
vt 0.999722 0.344183
vt 0.967464 0.549621
vt 0.999722 0.755060
vt 0.935206 0.755060
vt 0.302465 0.850675
vt 0.302465 0.786158
vt 0.388092 0.818416
vt 0.473719 0.786158
vt 0.473719 0.850675
vt 0.870134 0.344183
vt 0.934650 0.344183
vt 0.902392 0.549622
vt 0.934650 0.755060
vt 0.870134 0.755060
vt 0.150816 0.635065
vt 0.150816 0.881265
vt 0.075547 0.758165
vt 0.000278 0.881265
vt 0.000278 0.760513
vt 0.423217 0.785603
vt 0.302465 0.785603
vt 0.425565 0.710334
vt 0.302465 0.635065
vt 0.548665 0.635065
vt 0.002162 0.162796
vt 0.007836 0.131038
vt 0.004035 0.167007
vt 0.220030 0.110487
vt 0.098212 0.343627
vt 0.481500 0.139251
vt 0.145302 0.002550
vt 0.108488 0.011641
vt 0.140693 0.001068
vt 0.135730 0.000278
vt 0.130574 0.000278
vt 0.111878 0.008183
vt 0.115903 0.005174
vt 0.000878 0.158208
vt 0.000278 0.153370
vt 0.000420 0.148440
vt 0.001311 0.143589
vt 0.002909 0.138984
vt 0.005124 0.134765
vt 0.120466 0.002774
vt 0.125419 0.001115
vt 0.016410 0.572281
vt 0.012470 0.569601
vt 0.020556 0.574294
vt 0.008893 0.566288
vt 0.005824 0.562428
vt 0.003379 0.558144
vt 0.001633 0.553593
vt 0.000607 0.548940
vt 0.000278 0.544343
vt 0.217464 0.492589
vt 0.165548 0.632291
vt 0.202310 0.622991
vt 0.198940 0.626468
vt 0.000278 0.344183
vt 0.434650 0.344183
vt 0.194933 0.629501
vt 0.190383 0.631926
vt 0.170167 0.633747
vt 0.175134 0.634509
vt 0.185440 0.633613
vt 0.180289 0.634480
vt 0.669973 0.785603
vt 0.549221 0.785603
vt 0.672321 0.710334
vt 0.549221 0.635065
vt 0.795421 0.635065
vt 0.301909 0.635065
vt 0.301909 0.881265
vt 0.226640 0.758165
vt 0.151371 0.881265
vt 0.151371 0.760513
vt 0.451338 0.572281
vt 0.447398 0.569601
vt 0.455484 0.574294
vt 0.443821 0.566289
vt 0.440752 0.562428
vt 0.438308 0.558145
vt 0.436561 0.553593
vt 0.435535 0.548940
vt 0.435206 0.544343
vt 0.652392 0.492589
vt 0.600477 0.632291
vt 0.637239 0.622991
vt 0.633868 0.626468
vt 0.435206 0.344183
vt 0.869578 0.344183
vt 0.629861 0.629501
vt 0.625311 0.631926
vt 0.605095 0.633747
vt 0.610062 0.634509
vt 0.620368 0.633613
vt 0.615218 0.634480
vt 0.482385 0.085847
vt 0.502333 0.060493
vt 0.482055 0.090444
vt 0.699242 0.142198
vt 0.482055 0.290604
vt 0.916428 0.290604
vt 0.684088 0.011796
vt 0.647326 0.002496
vt 0.680718 0.008319
vt 0.676710 0.005286
vt 0.672161 0.002861
vt 0.651944 0.001040
vt 0.656912 0.000278
vt 0.483410 0.081194
vt 0.485157 0.076643
vt 0.487602 0.072359
vt 0.490671 0.068499
vt 0.494248 0.065186
vt 0.498187 0.062506
vt 0.662067 0.000307
vt 0.667218 0.001174
vn 0.3714 -0.0000 0.9285
vn 1.0000 -0.0000 0.0000
vn 0.3714 -0.0000 -0.9285
vn 0.0000 0.0000 -1.0000
vn 0.0000 -0.0000 1.0000
vn -0.0001 0.0000 1.0000
usemtl Glass_-_Heavy_Color_(Blue)
s 1
f 1/1/1 2/2/1 3/3/1
f 3/3/1 2/2/1 4/4/1
f 3/3/1 4/4/1 5/5/1
f 5/5/1 1/1/1 3/3/1
f 6/6/2 7/7/2 8/8/2
f 8/8/2 7/7/2 9/9/2
f 8/8/2 9/9/2 10/10/2
f 10/10/2 6/6/2 8/8/2
f 11/11/3 12/12/3 13/13/3
f 13/13/3 12/12/3 14/14/3
f 13/13/3 14/14/3 15/15/3
f 15/15/3 11/11/3 13/13/3
f 16/16/2 17/17/2 18/18/2
f 18/18/2 17/17/2 19/19/2
f 18/18/2 19/19/2 20/20/2
f 20/20/2 16/16/2 18/18/2
f 21/21/4 22/22/4 23/23/4
f 23/23/4 22/22/4 24/24/4
f 23/23/4 24/24/4 25/25/4
f 25/25/4 21/21/4 23/23/4
f 26/26/5 27/27/5 28/28/5
f 28/28/5 27/27/5 29/29/5
f 28/28/5 29/29/5 30/30/5
f 30/30/5 26/26/5 28/28/5
f 31/31/4 32/32/4 33/33/4
f 33/33/4 32/32/4 34/34/4
f 33/33/4 34/34/4 35/35/4
f 35/35/4 34/34/4 36/36/4
f 36/36/4 34/34/4 37/37/4
f 37/37/4 34/34/4 38/38/4
f 37/37/4 38/38/4 39/39/4
f 39/39/4 38/38/4 40/40/4
f 40/40/4 38/38/4 41/41/4
f 41/41/4 38/38/4 42/42/4
f 41/41/4 42/42/4 43/43/4
f 31/31/4 44/44/4 32/32/4
f 32/32/4 44/44/4 45/45/4
f 32/32/4 45/45/4 46/46/4
f 46/46/4 47/47/4 32/32/4
f 32/32/4 47/47/4 48/48/4
f 32/32/4 48/48/4 49/49/4
f 32/32/4 38/38/4 34/34/4
f 50/50/4 51/51/4 43/43/4
f 43/43/4 51/51/4 41/41/4
f 52/52/5 53/53/5 54/54/5
f 54/54/5 53/53/5 55/55/5
f 54/54/5 55/55/5 56/56/5
f 56/56/5 57/57/5 54/54/5
f 54/54/5 57/57/5 58/58/5
f 54/54/5 58/58/5 59/59/5
f 59/59/5 60/60/5 54/54/5
f 54/54/5 60/60/5 61/61/5
f 54/54/5 61/61/5 62/62/5
f 62/62/5 61/61/5 63/63/5
f 62/62/5 63/63/5 64/64/5
f 60/60/5 65/65/5 61/61/5
f 61/61/5 65/65/5 66/66/5
f 61/61/5 66/66/5 63/63/5
f 64/64/5 67/67/5 62/62/5
f 62/62/5 67/67/5 68/68/5
f 62/62/5 68/68/5 69/69/5
f 69/69/5 68/68/5 70/70/5
f 70/70/5 68/68/5 71/71/5
f 70/70/5 71/71/5 72/72/5
f 73/73/5 74/74/5 75/75/5
f 75/75/5 74/74/5 76/76/5
f 75/75/5 76/76/5 77/77/5
f 77/77/5 73/73/5 75/75/5
f 78/78/4 79/79/4 80/80/4
f 80/80/4 79/79/4 81/81/4
f 80/80/4 81/81/4 82/82/4
f 82/82/4 78/78/4 80/80/4
f 83/83/6 84/84/5 85/85/5
f 85/85/5 84/84/5 86/86/5
f 85/85/5 86/86/5 87/87/5
f 87/87/5 88/88/5 85/85/5
f 85/85/5 88/88/5 89/89/5
f 85/85/5 89/89/5 90/90/5
f 90/90/5 91/91/5 85/85/5
f 85/85/5 91/91/5 92/92/5
f 85/85/5 92/92/5 93/93/5
f 93/93/5 92/92/5 94/94/5
f 93/93/5 94/94/5 95/95/5
f 91/91/5 96/96/5 92/92/5
f 92/92/5 96/96/5 97/97/5
f 92/92/5 97/97/5 94/94/5
f 95/95/5 98/98/5 93/93/5
f 93/93/5 98/98/5 99/99/5
f 93/93/5 99/99/5 100/100/5
f 100/100/5 99/99/5 101/101/5
f 101/101/5 99/99/5 102/102/5
f 101/101/5 102/102/5 103/103/5
f 104/104/4 105/105/4 106/106/4
f 106/106/4 105/105/4 107/107/4
f 106/106/4 107/107/4 108/108/4
f 108/108/4 107/107/4 109/109/4
f 109/109/4 107/107/4 110/110/4
f 110/110/4 107/107/4 111/111/4
f 110/110/4 111/111/4 112/112/4
f 112/112/4 111/111/4 113/113/4
f 113/113/4 111/111/4 114/114/4
f 114/114/4 111/111/4 115/115/4
f 114/114/4 115/115/4 116/116/4
f 104/104/4 117/117/4 105/105/4
f 105/105/4 117/117/4 118/118/4
f 105/105/4 118/118/4 119/119/4
f 119/119/4 120/120/4 105/105/4
f 105/105/4 120/120/4 121/121/4
f 105/105/4 121/121/4 122/122/4
f 105/105/4 111/111/4 107/107/4
f 123/123/4 124/124/4 116/116/4
f 116/116/4 124/124/4 114/114/4
