# Blender v2.78 (sub 5) OBJ File: 'studioOBJScene.blend'
# www.blender.org
mtllib studioTableOBJ.mtl
o PAINTING_TABLE_PAINTING_TABLE_Plastic_-_Glossy_(White)
v 2.796822 -1.828801 -0.840476
v 1.780822 -1.828801 -0.840476
v 2.288822 -1.358901 -0.840476
v 1.780822 -0.889001 -0.840476
v 2.796822 -0.889001 -0.840476
v 2.796822 -0.888999 -3.736076
v 1.780822 -0.888999 -3.736076
v 2.288822 -1.358899 -3.736076
v 1.780822 -1.828799 -3.736076
v 2.796822 -1.828799 -3.736076
v 2.288822 -0.889001 -2.288275
v 2.796822 -1.828799 -3.812275
v 2.288822 -1.828799 -3.774176
v 1.780822 -1.828799 -3.812275
v 1.780822 -1.828801 -0.764276
v 2.288822 -1.828801 -0.802376
v 2.796822 -1.828801 -0.764276
v 2.796822 -0.812801 -0.764275
v 2.796822 -0.812799 -3.812275
v 1.780822 -0.812801 -0.764275
v 1.780822 -0.812799 -3.812275
v 2.288822 -1.320799 -3.812275
v 2.288822 -1.320801 -0.764275
v 2.288822 -0.812801 -2.288275
vt 0.735343 0.960429
vt 0.735343 0.712865
vt 0.846163 0.836647
vt 0.956983 0.712865
vt 0.956983 0.960429
vt 0.712655 0.750000
vt 0.712655 0.997563
vt 0.601835 0.873782
vt 0.491015 0.997563
vt 0.491015 0.750000
vt 0.735343 0.002437
vt 0.974954 0.002437
vt 0.855149 0.355214
vt 0.974954 0.707992
vt 0.735343 0.707992
vt 0.979671 0.002437
vt 0.997642 0.002437
vt 0.988656 0.126218
vt 0.997642 0.250000
vt 0.979671 0.250000
vt 0.979671 0.960429
vt 0.961700 0.960429
vt 0.970686 0.836647
vt 0.961700 0.712865
vt 0.979671 0.712865
vt 0.730626 0.021004
vt 0.508986 0.021004
vt 0.730626 0.002437
vt 0.491015 0.002437
vt 0.491015 0.745127
vt 0.508986 0.726560
vt 0.730626 0.745127
vt 0.730626 0.726560
vt 0.241970 0.726559
vt 0.241970 0.745127
vt 0.020329 0.726559
vt 0.002358 0.745127
vt 0.002358 0.002437
vt 0.020329 0.021004
vt 0.241970 0.002437
vt 0.241970 0.021004
vt 0.486298 0.750000
vt 0.486298 0.997563
vt 0.366492 0.873782
vt 0.246687 0.997563
vt 0.246687 0.750000
vt 0.241970 0.997563
vt 0.002358 0.997563
vt 0.122164 0.873782
vt 0.002358 0.750000
vt 0.241970 0.750000
vt 0.246687 0.745127
vt 0.246687 0.002437
vt 0.366492 0.373782
vt 0.486298 0.002437
vt 0.486298 0.745127
vn 0.0000 0.0000 -1.0000
vn 0.0000 0.0000 1.0000
vn 0.0000 -1.0000 -0.0000
vn 1.0000 0.0000 0.0000
vn -1.0000 0.0000 0.0000
vn 0.0000 1.0000 0.0000
usemtl Plastic_-_Glossy_(White)
s 1
f 1/1/1 2/2/1 3/3/1
f 3/3/1 2/2/1 4/4/1
f 3/3/1 4/4/1 5/5/1
f 5/5/1 1/1/1 3/3/1
f 6/6/2 7/7/2 8/8/2
f 8/8/2 7/7/2 9/9/2
f 8/8/2 9/9/2 10/10/2
f 10/10/2 6/6/2 8/8/2
f 5/11/3 4/12/3 11/13/3
f 11/13/3 4/12/3 7/14/3
f 11/13/3 7/14/3 6/15/3
f 6/15/3 5/11/3 11/13/3
f 12/16/3 10/17/3 13/18/3
f 13/18/3 10/17/3 9/19/3
f 13/18/3 9/19/3 14/20/3
f 14/20/3 12/16/3 13/18/3
f 15/21/3 2/22/3 16/23/3
f 16/23/3 2/22/3 1/24/3
f 16/23/3 1/24/3 17/25/3
f 17/25/3 15/21/3 16/23/3
f 1/26/4 5/27/4 17/28/4
f 17/28/4 5/27/4 18/29/4
f 18/29/4 5/27/4 19/30/4
f 19/30/4 5/27/4 6/31/4
f 19/30/4 6/31/4 12/32/4
f 12/32/4 6/31/4 10/33/4
f 2/34/5 15/35/5 4/36/5
f 4/36/5 15/35/5 20/37/5
f 4/36/5 20/37/5 21/38/5
f 4/36/5 21/38/5 7/39/5
f 7/39/5 21/38/5 14/40/5
f 7/39/5 14/40/5 9/41/5
f 19/42/1 12/43/1 22/44/1
f 22/44/1 12/43/1 14/45/1
f 22/44/1 14/45/1 21/46/1
f 21/46/1 19/42/1 22/44/1
f 20/47/2 15/48/2 23/49/2
f 23/49/2 15/48/2 17/50/2
f 23/49/2 17/50/2 18/51/2
f 18/51/2 20/47/2 23/49/2
f 21/52/6 20/53/6 24/54/6
f 24/54/6 20/53/6 18/55/6
f 24/54/6 18/55/6 19/56/6
f 19/56/6 21/52/6 24/54/6
